PathFileType	4	(X/Y/Z)	C:\Users\Basilio\Documents\Thesis Gigler\squatting_fais\c3dfiles\039\SJ_pre2\markers_experimental.trc
DataRate	CameraRate	NumFrames	NumMarkers	Units	OrigDataRate	OrigDataStartFrame	OrigNumFrames
200.000000	200.000000	4	61	mm	200.000000	0	1732
Frame#	Time	FHD			LBHD			RBHD			C7			T10			CLAV			LSHO			LUUPA			LMUPA			LDUPA			LLEP			LMEP			LRAD			LUL			LRFIN			RSHO			RUPA1			RMUPA			RDUPA			RLEP			RMEP			RRAD			RUL			RUFIN			LASI			RASI			USACR			LSACR			RSACR			LTHI1			LTHI2			LTHI3			LTHI4			LLFC			LMFC			LTIB1			LTIB2			LTIB3			LTIB4			LLMAL			LMMAL			LHEE			LMT1			LMT2			LMT5			RTHI			RTHI2			RTHI3			RTHI4			RLFC			RMFC			RTIB1			RTIB2			RTIB3			RTIB4			RLMAL			RMMAL			RHEE			RMT1			RMT2			RMT5			
		X1	Y1	Z1	X2	Y2	Z2	X3	Y3	Z3	X4	Y4	Z4	X5	Y5	Z5	X6	Y6	Z6	X7	Y7	Z7	X8	Y8	Z8	X9	Y9	Z9	X10	Y10	Z10	X11	Y11	Z11	X12	Y12	Z12	X13	Y13	Z13	X14	Y14	Z14	X15	Y15	Z15	X16	Y16	Z16	X17	Y17	Z17	X18	Y18	Z18	X19	Y19	Z19	X20	Y20	Z20	X21	Y21	Z21	X22	Y22	Z22	X23	Y23	Z23	X24	Y24	Z24	X25	Y25	Z25	X26	Y26	Z26	X27	Y27	Z27	X28	Y28	Z28	X29	Y29	Z29	X30	Y30	Z30	X31	Y31	Z31	X32	Y32	Z32	X33	Y33	Z33	X34	Y34	Z34	X35	Y35	Z35	X36	Y36	Z36	X37	Y37	Z37	X38	Y38	Z38	X39	Y39	Z39	X40	Y40	Z40	X41	Y41	Z41	X42	Y42	Z42	X43	Y43	Z43	X44	Y44	Z44	X45	Y45	Z45	X46	Y46	Z46	X47	Y47	Z47	X48	Y48	Z48	X49	Y49	Z49	X50	Y50	Z50	X51	Y51	Z51	X52	Y52	Z52	X53	Y53	Z53	X54	Y54	Z54	X55	Y55	Z55	X56	Y56	Z56	X57	Y57	Z57	X58	Y58	Z58	X59	Y59	Z59	X60	Y60	Z60	X61	Y61	Z61	

1	0	-191.1227264404297	1761.447998046875	-840.994812011719	-335.5057067871094	1693.6337890625	-963.0891113281252	-313.2206115722657	1706.609008789063	-823.4258422851565	-356.0733032226563	1558.632080078125	-903.7313232421877	-388.9825744628907	1242.933715820313	-911.3272094726565	-218.9978790283204	1478.021728515625	-903.076354980469	-274.5369262695313	1531.506469726563	-1091.30322265625	-375.6361694335938	1405.841430664063	-1251.776245117188	-340.4322204589844	1370.334838867188	-1257.509521484375	-382.7539367675782	1352.728637695313	-1297.148803710938	-383.0398559570313	1287.8603515625	-1328.6630859375	-458.7886352539064	1272.47705078125	-1282.658935546875	-363.4681701660157	1055.002807617188	-1152.230102539063	-316.0679931640626	1035.077758789063	-1208.665893554688	-310.7999267578126	1056.533081054688	-1103.201538085938	-256.3641967773438	1521.471801757813	-710.4191894531251	-385.5144348144532	1414.31396484375	-564.0424804687501	-357.1414184570313	1375.80859375	-548.6163330078126	-407.9882812500001	1365.646606445313	-518.4116821289064	-408.138885498047	1301.718994140625	-485.6307678222657	-482.0291137695314	1289.763549804688	-535.4658203125001	-350.6667175292969	1101.532348632813	-697.4685668945314	-341.4335021972657	1052.355590820313	-639.4341430664064	-293.3150939941407	1077.005126953125	-741.0510864257814	-234.3337097167969	1041.174682617188	-1024.406616210938	-236.3745422363282	1024.584228515625	-807.382263183594	-412.1969604492189	1118.099243164063	-910.2815551757815	-419.7662353515626	1088.587280273438	-939.655700683594	-424.6640014648439	1087.602661132813	-881.649841308594	-287.0962829589844	775.6365966796877	-1118.628662109375	-245.5131835937501	702.1428222656251	-1127.994140625	-197.6005249023438	710.7720336914064	-1122.660278320313	-264.1096191406251	645.8386230468751	-1114.867797851563	-248.8103332519532	526.6404418945314	-1120.032836914063	-207.8890991210938	497.5464172363282	-1009.605224609375	-200.5119171142579	375.4706115722657	-1106.501220703125	-276.7337036132813	344.6260375976563	-1144.109741210938	-236.3040618896485	335.5844726562501	-1129.525390625	-243.3844451904297	254.811508178711	-1092.965209960938	-331.3685302734376	98.57688140869143	-1124.038940429688	-305.3307495117188	94.36103820800783	-1040.239013671875	-397.5634765625001	41.2877311706543	-1081.392578125	-162.5173950195313	56.46103668212892	-1094.730346679688	-173.6706085205078	55.07265853881837	-1136.9423828125	-223.4898071289063	30.82016563415528	-1182.797607421875	-275.8806457519532	776.2371826171877	-710.4080200195314	-227.0819702148438	730.4046020507814	-699.4430541992189	-195.866928100586	739.7849121093751	-704.7167968750001	-238.4026336669922	645.6245727539064	-702.0217895507814	-245.8626403808594	507.9630432128907	-713.3526611328126	-199.1702728271485	490.0103149414064	-820.1302490234377	-223.2689056396485	298.3394775390626	-709.4699096679689	-313.9934692382813	241.2847442626954	-702.0258789062501	-268.8619384765626	229.1859283447266	-699.0052490234376	-252.9534454345704	176.4022674560547	-723.7729492187501	-327.4048767089844	91.75587463378908	-699.7857055664064	-291.4879150390626	98.90427398681643	-783.0896606445315	-391.4914550781251	40.58675384521485	-749.6695556640626	-157.7693481445313	52.08440017700197	-729.8860473632814	-167.1066131591797	57.7820167541504	-684.1679687500001	-223.7109375000001	30.37944221496583	-636.9375610351564	
2	0.005	-190.9977416992188	1761.413330078125	-840.9318847656252	-336.5737609863282	1693.792846679688	-962.3151855468752	-313.1243591308594	1706.68701171875	-823.417419433594	-355.9941406250001	1558.665649414063	-903.695007324219	-387.3099060058595	1243.179077148438	-910.548767089844	-218.9405670166016	1478.028564453125	-903.065124511719	-274.4582519531251	1531.511474609375	-1091.295288085938	-375.5636901855469	1405.904907226563	-1251.777099609375	-340.3809204101563	1370.422241210938	-1257.517944335938	-382.6690368652344	1352.761108398438	-1297.148803710938	-382.9382629394532	1287.890502929688	-1328.631225585938	-458.731903076172	1272.474975585938	-1282.624389648438	-363.4463806152344	1055.072143554688	-1152.23779296875	-316.0048522949219	1035.121948242188	-1208.624633789063	-310.7446289062501	1056.543090820313	-1103.184204101563	-256.4950256347657	1521.31298828125	-710.5414428710939	-385.3854980468751	1414.307495117188	-563.9937744140626	-357.0286865234376	1375.814208984375	-548.5703125000001	-407.8589172363282	1365.67041015625	-518.3439941406251	-408.0137939453126	1301.748413085938	-485.588104248047	-481.9529724121095	1289.795043945313	-535.4205322265626	-350.6575317382813	1101.543334960938	-697.4688110351564	-341.3555297851563	1052.375610351563	-639.4013671875001	-293.2402343750001	1077.01904296875	-741.0201416015626	-234.3408355712891	1041.226928710938	-1024.4111328125	-236.2422943115235	1024.620483398438	-807.351501464844	-411.9899291992189	1118.711669921875	-910.3104248046877	-419.7751770019532	1088.641479492188	-939.6187744140627	-424.5972595214845	1087.65234375	-881.5714111328127	-287.1255798339844	775.6729125976565	-1118.605834960938	-245.5425567626954	702.1460571289064	-1127.970092773438	-197.6439056396485	710.7835693359376	-1122.655029296875	-264.1096191406251	645.8386230468751	-1114.867797851563	-248.9014129638672	526.6813354492189	-1120.002563476563	-207.8777618408204	497.5625610351564	-1009.628479003906	-200.571762084961	375.4888305664063	-1106.482421875	-276.8347167968751	344.6371459960938	-1144.08935546875	-236.3725738525391	335.5493469238282	-1129.495727539063	-243.3973236083985	254.8068389892579	-1093.073364257813	-331.4013671875001	98.59513092041018	-1124.029418945313	-305.3364868164063	94.35581970214845	-1040.271362304688	-397.5087280273439	41.26948928833009	-1081.382934570313	-162.5874328613282	56.39627075195314	-1094.78271484375	-173.6158294677735	55.05371475219728	-1136.949462890625	-223.4640502929688	30.80410957336426	-1182.791137695313	-275.8278808593751	776.2730712890627	-710.4255981445314	-226.9972534179688	730.3941650390626	-699.4578247070314	-195.8046264648438	739.7529907226564	-704.7352294921876	-238.3587646484376	645.6284179687501	-702.0549926757814	-245.8081207275391	507.9652404785157	-713.3510742187501	-198.9506988525391	490.1540832519532	-820.458435058594	-223.2352905273438	298.3420715332032	-709.4847412109376	-313.9931640625001	241.2852478027344	-702.0256958007814	-268.8358154296876	229.1632690429688	-699.0409545898439	-252.9606170654297	176.3844299316407	-723.8045654296876	-327.3716430664063	91.76597595214845	-699.8036499023439	-291.5265808105469	98.89017486572268	-783.1129150390627	-391.4914550781251	40.58675384521485	-749.6695556640626	-157.7415161132813	52.07280731201173	-729.8814697265626	-167.0681457519532	57.79195404052736	-684.1580200195314	-223.6848754882813	30.37833213806153	-636.9312133789064	
3	0.01	-190.8531494140625	1761.390747070313	-840.8880004882815	-336.4748229980469	1693.856079101563	-962.2458496093752	-313.0007019042969	1706.68310546875	-823.3623046875002	-355.8834533691407	1558.652709960938	-903.669860839844	-387.3025512695314	1243.166748046875	-910.549499511719	-218.9269409179688	1478.029418945313	-903.0432739257815	-274.4153747558594	1531.558959960938	-1091.282348632813	-375.5234375000001	1405.919189453125	-1251.758422851563	-340.3318176269532	1370.431884765625	-1257.494750976563	-382.6052856445313	1352.78369140625	-1297.161987304688	-382.8622131347657	1287.921752929688	-1328.641845703125	-458.7256164550782	1272.545776367188	-1282.636108398438	-363.4071044921876	1055.069702148438	-1152.252319335938	-316.0360412597657	1035.138061523438	-1208.605102539063	-310.7734680175782	1056.606323242188	-1103.174560546875	-256.4324340820313	1521.328491210938	-710.5399169921876	-385.3571166992189	1414.32958984375	-563.9759521484376	-356.9244079589844	1375.804931640625	-548.5578613281251	-407.7407836914064	1365.667724609375	-518.3245239257814	-407.9306030273439	1301.761962890625	-485.5347595214845	-481.8607482910157	1289.782348632813	-535.4494628906251	-350.5281677246094	1101.551147460938	-697.4413452148439	-341.2773132324219	1052.369750976563	-639.3644409179689	-293.0743713378907	1077.045654296875	-741.0140380859376	-234.3701477050782	1041.221313476563	-1024.43212890625	-236.1544189453126	1024.63427734375	-807.3767089843752	-411.9776306152345	1118.116821289063	-910.1502075195315	-419.7268676757814	1088.656860351563	-939.5815429687502	-424.5834045410157	1087.675537109375	-881.566345214844	-287.1350097656251	775.6771240234377	-1118.593383789063	-245.6010894775391	702.1370239257814	-1127.941650390625	-197.7242584228516	710.8054199218751	-1122.655029296875	-264.1519775390626	645.8688354492189	-1114.901489257813	-248.9666290283204	526.7011718750001	-1120.015991210938	-207.8975524902344	497.5758361816407	-1009.645385742188	-200.6568756103516	375.5355529785157	-1106.520751953125	-276.8408508300782	344.6782531738282	-1144.0888671875	-236.4951171875001	335.6349182128907	-1129.517333984375	-243.4254302978516	254.8465118408204	-1093.0849609375	-331.4100646972657	98.59771728515628	-1124.010620117188	-305.3731079101563	94.39731597900392	-1040.236938476563	-397.4940795898439	41.26860046386719	-1081.350341796875	-162.552230834961	56.41563034057619	-1094.759887695313	-173.6548004150391	55.07275772094728	-1136.968383789063	-223.4634094238282	30.78804969787598	-1182.8056640625	-275.7634582519532	776.2498168945315	-710.4329223632814	-227.1746978759766	730.9837646484376	-699.4916381835939	-195.7494659423829	739.7333374023439	-704.7537231445314	-238.3130493164063	645.6213989257814	-702.0863647460939	-245.7818298339844	507.9565734863282	-713.4390258789064	-199.2519073486329	490.0403442382814	-820.1894531250002	-223.2495422363282	298.3338928222657	-709.5385131835939	-313.9671936035157	241.3102722167969	-702.0092773437501	-268.8547363281251	229.1809539794922	-699.0134887695314	-252.9638977050782	176.3848114013672	-723.8072509765626	-327.3716430664063	91.76597595214845	-699.8036499023439	-291.5249328613282	98.86853027343753	-783.1199951171877	-391.4888610839845	40.60410690307618	-749.6653442382814	-157.7515716552735	52.07675552368165	-729.8783569335939	-167.0883331298828	57.75413894653322	-684.1899414062501	-223.7140655517579	30.37424659729005	-636.9578247070314	
4	0.015	-190.718002319336	1761.307495117188	-840.7996215820315	-336.3284912109376	1693.879028320313	-962.2095336914065	-312.8623352050782	1706.698364257813	-823.3069458007815	-355.8121032714844	1558.68359375	-903.628601074219	-387.0467834472657	1243.17578125	-910.438415527344	-218.8296508789063	1478.034912109375	-903.0216064453127	-274.3675842285157	1531.564453125	-1091.239379882813	-375.5032653808594	1405.989379882813	-1251.719116210938	-340.8785705566407	1369.645263671875	-1257.484619140625	-382.5881042480469	1352.807373046875	-1297.144287109375	-382.8530578613282	1287.973510742188	-1328.625366210938	-458.6506958007814	1272.581298828125	-1282.65234375	-363.3890991210938	1055.124145507813	-1152.206787109375	-316.0281066894532	1035.172119140625	-1208.605346679688	-310.7585754394532	1056.6044921875	-1103.177734375	-256.1340942382813	1521.471923828125	-710.4107055664064	-385.2373352050782	1414.340087890625	-563.9437866210939	-356.8092346191407	1375.821899414063	-548.4929199218751	-407.6397399902345	1365.658447265625	-518.2706909179689	-407.817352294922	1301.752807617188	-485.5386962890626	-481.8074951171876	1289.80126953125	-535.3883666992189	-350.4782104492188	1101.562866210938	-697.4004516601564	-341.2241516113282	1052.359130859375	-639.3349609375001	-292.9956665039063	1077.045043945313	-741.0119018554689	-234.2141418457032	1041.2763671875	-1024.431030273438	-236.0662689208985	1024.673583984375	-807.3642578125002	-411.9197082519532	1118.159423828125	-910.1116333007815	-419.6341857910157	1088.69970703125	-939.5427246093752	-424.4917602539064	1087.7333984375	-881.5004882812502	-287.1751708984376	775.7047119140627	-1118.585083007813	-245.6019134521485	702.1693725585939	-1127.946655273438	-197.7148742675782	710.8266601562501	-1122.6474609375	-264.1843566894532	645.8898315429689	-1114.850708007813	-249.0326232910157	526.7119750976564	-1119.990234375	-207.9157104492188	497.5923156738282	-1009.615234375	-200.7123260498047	375.5549011230469	-1106.504760742188	-276.9382629394532	344.6978759765626	-1144.114501953125	-236.4974060058594	335.6668090820313	-1129.542236328125	-243.4621734619141	254.8929901123047	-1093.10009765625	-331.4013671875001	98.59513092041018	-1124.029418945313	-305.3406982421876	94.37722015380861	-1040.241577148438	-397.4880676269532	41.28865051269532	-1081.357055664063	-162.5541687011719	56.39098358154298	-1094.754638671875	-173.5917358398438	55.00612640380861	-1136.961547851563	-224.0753936767579	31.25263595581055	-1182.839965820313	-275.6889343261719	776.254821777344	-710.4349975585939	-227.1002960205079	730.9580688476564	-699.4873046875001	-195.7236938476563	739.7276611328126	-704.7989501953126	-238.2452545166016	645.6210937500001	-702.1388549804689	-245.7898254394532	507.9657287597657	-713.4237060546876	-199.2276763916016	490.0207519531251	-820.2531738281252	-223.2434997558594	298.3604431152344	-709.5422363281251	-313.9507751464844	241.2980651855469	-702.0432128906251	-268.8552856445313	229.1798706054688	-699.0156250000001	-252.923568725586	176.4240264892578	-723.8163452148439	-327.3739013671876	91.75148773193361	-699.8333740234376	-291.5249328613282	98.86853027343753	-783.1199951171877	-391.4954223632814	40.5942726135254	-749.6644287109376	-157.7383422851563	52.02454376220705	-729.8899536132814	-167.0664215087891	57.77589797973634	-684.1717529296876	-223.682113647461	30.36347770690919	-636.9293212890626	
